<?xml version="1.0" encoding="UTF-8"?>
<svg id="Layer_1" data-name="Layer 1" xmlns="http://www.w3.org/2000/svg" version="1.1" xmlns:xlink="http://www.w3.org/1999/xlink" viewBox="0 0 600 350">
  <defs>
    <style>
      .cls-1, .cls-2, .cls-3, .cls-4, .cls-5 {
        stroke-width: 0px;
      }

      .cls-1, .cls-6, .cls-7 {
        fill: #000;
      }

      .cls-2 {
        fill: none;
      }

      .cls-8 {
        fill: #fff;
      }

      .cls-8, .cls-6, .cls-7 {
        stroke: #332c2b;
        stroke-miterlimit: 10;
      }

      .cls-8, .cls-7 {
        stroke-width: .1px;
      }

      .cls-3 {
        fill: #bd0505;
      }

      .cls-4 {
        fill: #7d7b7b;
      }

      .cls-9 {
        clip-path: url(#clippath);
      }

      .cls-6 {
        stroke-width: 0px;
      }

      .cls-5 {
        fill: #21b0dd;
      }

      .cls-7 {
        fill-rule: evenodd;
      }
    </style>
    <clipPath id="clippath">
      <rect class="cls-2" x="21" y="71" width="100" height="138"/>
    </clipPath>
  </defs>
  <g id="Panada">
    <path class="cls-6" d="M353.5,198.6c-.5.8-1,1.6-1.5,2.4-.5.8-1.1,1.6-1.6,2.3-.6.8-1.1,1.5-1.7,2.2-.6.7-1.2,1.4-1.8,2s-1.3,1.3-1.9,1.9c-.6.6-1.3,1.2-2,1.7-.7.5-1.3,1-2,1.5-.7.5-1.3.9-2,1.3-.7.4-1.4.7-2,1-.7.3-1.3.6-2,.8-.7.2-1.3.4-2,.5-.7.1-1.3.2-1.9.3-.6,0-1.2,0-1.8,0-.6,0-1.2-.1-1.8-.2-.6-.1-1.1-.3-1.6-.5-.5-.2-1-.4-1.5-.7-.5-.3-.9-.6-1.4-1-.4-.4-.8-.8-1.2-1.2-.4-.4-.7-.9-1.1-1.4-.3-.5-.6-1-.9-1.6-.3-.6-.5-1.2-.7-1.8-.2-.6-.4-1.3-.5-2-.1-.7-.2-1.4-.3-2.1,0-.7-.1-1.5-.1-2.3,0-.8,0-1.6,0-2.4,0-.8.2-1.6.3-2.5.1-.8.3-1.7.5-2.5.2-.9.4-1.7.7-2.6.3-.9.5-1.7.8-2.6.3-.9.7-1.7,1-2.6.4-.9.8-1.7,1.2-2.6.4-.8.9-1.7,1.3-2.5.5-.8,1-1.6,1.5-2.4.5-.8,1.1-1.6,1.6-2.3.6-.8,1.1-1.5,1.7-2.2.6-.7,1.2-1.4,1.8-2s1.3-1.3,1.9-1.9c.6-.6,1.3-1.2,2-1.7s1.3-1,2-1.5c.7-.5,1.3-.9,2-1.3.7-.4,1.4-.7,2-1,.7-.3,1.3-.6,2-.8.7-.2,1.3-.4,2-.5.7-.1,1.3-.2,1.9-.3.6,0,1.2,0,1.8,0,.6,0,1.2,0,1.8.2.6.1,1.1.3,1.6.5.5.2,1,.4,1.5.7.5.3.9.6,1.4,1,.4.4.8.8,1.2,1.2.4.4.7.9,1.1,1.4.3.5.6,1,.9,1.6s.5,1.2.7,1.8c.2.6.4,1.3.5,2,.1.7.2,1.4.3,2.1,0,.7.1,1.5.1,2.3,0,.8,0,1.6,0,2.4,0,.8-.2,1.6-.3,2.5-.1.8-.3,1.7-.5,2.5-.2.9-.4,1.7-.7,2.6-.3.9-.5,1.7-.8,2.6-.3.9-.7,1.7-1,2.6-.4.9-.8,1.7-1.2,2.6-.4.8-.9,1.7-1.3,2.5Z"/>
    <path class="cls-6" d="M403.7,198.6c.5.8,1,1.6,1.5,2.4.5.8,1.1,1.6,1.6,2.3.6.8,1.1,1.5,1.7,2.2.6.7,1.2,1.4,1.8,2,.6.7,1.3,1.3,1.9,1.9.7.6,1.3,1.2,2,1.7.7.5,1.3,1,2,1.5.7.5,1.3.9,2,1.3s1.4.7,2,1c.7.3,1.3.6,2,.8.7.2,1.3.4,2,.5.7.1,1.3.2,1.9.3.6,0,1.2,0,1.8,0,.6,0,1.2-.1,1.8-.2.6-.1,1.1-.3,1.6-.5.5-.2,1-.4,1.5-.7.5-.3.9-.6,1.4-1s.8-.8,1.2-1.2c.4-.4.7-.9,1.1-1.4s.6-1,.9-1.6c.3-.6.5-1.2.7-1.8.2-.6.4-1.3.5-2,.1-.7.2-1.4.3-2.1,0-.7.1-1.5.1-2.3,0-.8,0-1.6,0-2.4,0-.8-.2-1.6-.3-2.5-.1-.8-.3-1.7-.5-2.5-.2-.9-.4-1.7-.7-2.6-.3-.9-.5-1.7-.8-2.6-.3-.9-.7-1.7-1-2.6-.4-.9-.8-1.7-1.2-2.6-.4-.8-.9-1.7-1.3-2.5s-1-1.6-1.5-2.4c-.5-.8-1.1-1.6-1.6-2.3-.6-.8-1.1-1.5-1.7-2.2s-1.2-1.4-1.8-2c-.6-.7-1.3-1.3-1.9-1.9-.6-.6-1.3-1.2-2-1.7-.7-.5-1.3-1-2-1.5-.7-.5-1.3-.9-2-1.3-.7-.4-1.4-.7-2-1-.7-.3-1.3-.6-2-.8-.7-.2-1.3-.4-2-.5-.7-.1-1.3-.2-1.9-.3-.6,0-1.2,0-1.8,0-.6,0-1.2,0-1.8.2-.6.1-1.1.3-1.6.5-.5.2-1,.4-1.5.7-.5.3-.9.6-1.4,1-.4.4-.8.8-1.2,1.2-.4.4-.7.9-1.1,1.4-.3.5-.6,1-.9,1.6-.3.6-.5,1.2-.7,1.8-.2.6-.4,1.3-.5,2-.1.7-.2,1.4-.3,2.1,0,.7-.1,1.5-.1,2.3,0,.8,0,1.6,0,2.4,0,.8.2,1.6.3,2.5.1.8.3,1.7.5,2.5.2.9.4,1.7.7,2.6.3.9.5,1.7.8,2.6.3.9.7,1.7,1,2.6.4.9.8,1.7,1.2,2.6.4.8.9,1.7,1.3,2.5Z"/>
    <path class="cls-7" d="M304.3,126.2c13-3.4,26.4,3.5,31.1,15.8-14,8-25.4,19.7-33.1,33.9-7.8-2.8-14.2-9.2-16.5-17.8-3.7-13.8,4.6-28.2,18.5-31.9Z"/>
    <path class="cls-7" d="M451.8,126.2c-13-3.4-26.4,3.5-31.1,15.8,14,8,25.4,19.7,33.1,33.9,7.8-2.8,14.2-9.2,16.5-17.8,3.7-13.8-4.6-28.2-18.5-31.9Z"/>
    <path class="cls-8" d="M353.6,192.1c0,.5,0,.9-.1,1.4,0,.5-.2.9-.4,1.3-.2.4-.4.8-.7,1.2-.3.4-.6.8-.9,1.1-.3.3-.7.6-1.1.9-.4.3-.8.5-1.2.7-.4.2-.9.3-1.3.4-.5,0-.9.1-1.4.1s-.9,0-1.4-.1c-.5,0-.9-.2-1.3-.4-.4-.2-.8-.4-1.2-.7-.4-.3-.8-.6-1.1-.9s-.6-.7-.9-1.1c-.3-.4-.5-.8-.7-1.2-.2-.4-.3-.9-.4-1.3,0-.5-.1-.9-.1-1.4s0-.9.1-1.4c0-.5.2-.9.4-1.3.2-.4.4-.8.7-1.2.3-.4.6-.8.9-1.1.3-.3.7-.6,1.1-.9.4-.3.8-.5,1.2-.7.4-.2.9-.3,1.3-.4.5,0,.9-.1,1.4-.1s.9,0,1.4.1c.5,0,.9.2,1.3.4.4.2.8.4,1.2.7.4.3.8.6,1.1.9.3.3.6.7.9,1.1.3.4.5.8.7,1.2.2.4.3.9.4,1.3,0,.5.1.9.1,1.4Z"/>
    <path class="cls-8" d="M419.3,192.1c0,.5,0,.9-.1,1.4,0,.5-.2.9-.4,1.3-.2.4-.4.8-.7,1.2-.3.4-.6.8-.9,1.1s-.7.6-1.1.9c-.4.3-.8.5-1.2.7-.4.2-.9.3-1.3.4-.5,0-.9.1-1.4.1s-.9,0-1.4-.1c-.5,0-.9-.2-1.3-.4-.4-.2-.8-.4-1.2-.7-.4-.3-.7-.6-1.1-.9-.3-.3-.6-.7-.9-1.1-.3-.4-.5-.8-.7-1.2-.2-.4-.3-.9-.4-1.3,0-.5-.1-.9-.1-1.4s0-.9.1-1.4c0-.5.2-.9.4-1.3.2-.4.4-.8.7-1.2.3-.4.6-.8.9-1.1.3-.3.7-.6,1.1-.9.4-.3.8-.5,1.2-.7.4-.2.9-.3,1.3-.4.5,0,.9-.1,1.4-.1s.9,0,1.4.1c.5,0,.9.2,1.3.4.4.2.8.4,1.2.7.4.3.8.6,1.1.9.3.3.6.7.9,1.1.3.4.5.8.7,1.2.2.4.3.9.4,1.3,0,.5.1.9.1,1.4Z"/>
  </g>
  <g id="T">
    <path class="cls-1" d="M374,219h-11.2c-1.2,0-2.3-.4-3.2-1.3-.9-.9-1.3-1.9-1.3-3.2s.4-2.3,1.3-3.2c.9-.9,1.9-1.3,3.2-1.3h31.5c1.2,0,2.3.4,3.2,1.3.9.9,1.3,1.9,1.3,3.2s-.4,2.3-1.3,3.2-1.9,1.3-3.2,1.3h-11.2v31.5c0,1.2-.5,2.3-1.4,3.2-.9.9-1.9,1.3-3.1,1.3s-2.3-.4-3.2-1.3c-.9-.9-1.3-1.9-1.3-3.2v-31.5Z"/>
  </g>
  <g id="alent">
    <path class="cls-5" d="M403.8,236.6c0-2.5.5-4.8,1.4-7,.9-2.2,2.2-4.1,3.9-5.7,1.6-1.6,3.5-2.9,5.7-3.9,2.2-.9,4.5-1.4,7-1.4s4.8.5,7,1.4c2.2.9,4.1,2.2,5.7,3.9,1.6,1.6,2.9,3.6,3.9,5.7.9,2.2,1.4,4.5,1.4,7s-.2,3.2-.6,4.7c-.4,1.5-1,2.9-1.8,4.3.9.4,1.6,1,2.1,1.8.5.8.8,1.7.8,2.8s-.5,2.6-1.5,3.6c-1,1-2.2,1.5-3.6,1.5s-2-.3-2.8-.8c-.8-.5-1.4-1.3-1.9-2.1-2.7,1.6-5.6,2.4-8.9,2.4s-4.8-.5-7-1.4c-2.2-.9-4.1-2.2-5.7-3.9-1.6-1.6-2.9-3.5-3.9-5.7-.9-2.2-1.4-4.5-1.4-7ZM412.7,236.6c0,1.3.2,2.4.7,3.5.5,1.1,1.1,2,1.9,2.8.8.8,1.8,1.5,2.8,1.9,1.1.5,2.3.7,3.5.7s2.4-.2,3.5-.7c1.1-.5,2-1.1,2.9-1.9.8-.8,1.5-1.8,1.9-2.8.5-1.1.7-2.3.7-3.5s-.2-2.4-.7-3.5c-.5-1.1-1.1-2-1.9-2.9-.8-.8-1.8-1.5-2.9-1.9-1.1-.5-2.2-.7-3.5-.7s-2.4.2-3.5.7c-1.1.5-2,1.1-2.8,1.9-.8.8-1.5,1.8-1.9,2.9-.5,1.1-.7,2.2-.7,3.5Z"/>
    <path class="cls-5" d="M457,250.2c0,1.2-.4,2.3-1.3,3.2-.9.9-1.9,1.3-3.2,1.3s-2.3-.4-3.2-1.3c-.9-.9-1.3-1.9-1.3-3.2v-40.5c0-1.2.4-2.3,1.3-3.2.9-.9,1.9-1.3,3.2-1.3s2.3.4,3.2,1.3c.9.9,1.3,2,1.3,3.2v40.5Z"/>
    <path class="cls-5" d="M482.7,254c-2.4,0-4.7-.4-6.8-1.3-2.1-.9-3.9-2.2-5.5-3.7-1.6-1.6-2.8-3.4-3.7-5.5-.9-2.1-1.3-4.4-1.3-6.8s.4-4.6,1.3-6.7c.9-2.1,2.2-3.9,3.7-5.5,1.6-1.6,3.4-2.8,5.5-3.7,2.1-.9,4.4-1.4,6.8-1.4s4.6.5,6.7,1.4c2.1.9,3.9,2.1,5.5,3.7,1.6,1.6,2.8,3.4,3.7,5.5.9,2.1,1.4,4.3,1.4,6.7s-.4,2.2-1.3,3.1c-.9.9-1.9,1.3-3.1,1.3h-20.8s1.9,2.6,3.2,3.4c1.4.8,4.6,1.6,4.6,1.6h4.5s2.3,0,3.1,1c.9.9,1.3,1.9,1.3,3.1s-.4,2.3-1.3,3.2c-.9.9-3.1.7-3.1.7h-4.5ZM482.7,227.5c-1.7,0-3.2.4-4.6,1.2-1.4.8-2.4,1.9-3.2,3.3h15.6c-.8-1.3-1.9-2.4-3.3-3.3-1.4-.8-2.9-1.2-4.5-1.2Z"/>
    <path class="cls-5" d="M507.4,223.2c0-1.4.5-2.6,1.5-3.6,1-1,2.2-1.5,3.6-1.5s2,.3,2.8.8c.8.5,1.4,1.3,1.8,2.1,1.3-.8,2.8-1.3,4.2-1.8,1.5-.4,3.1-.6,4.7-.6,2.5,0,4.8.5,7,1.4,2.2.9,4.1,2.2,5.7,3.9,1.6,1.6,2.9,3.6,3.9,5.7.9,2.2,1.4,4.5,1.4,7v13.5c0,1.2-.4,2.3-1.3,3.2-.9.9-1.9,1.3-3.2,1.3s-2.3-.4-3.2-1.3c-.9-.9-1.3-1.9-1.3-3.2v-13.5c0-1.3-.2-2.4-.7-3.5-.5-1.1-1.1-2-1.9-2.9-.8-.8-1.8-1.5-2.9-1.9-1.1-.5-2.2-.7-3.5-.7s-2.4.2-3.5.7c-1.1.5-2,1.1-2.8,1.9-.8.8-1.5,1.8-1.9,2.9-.5,1.1-.7,2.2-.7,3.5v13.5c0,1.2-.4,2.3-1.3,3.2-.9.9-1.9,1.3-3.2,1.3s-2.3-.4-3.2-1.3c-.9-.9-1.3-1.9-1.3-3.2v-13.5c0-3.2.8-6.2,2.4-8.9-.9-.4-1.6-1-2.1-1.9-.5-.8-.8-1.7-.8-2.8Z"/>
    <path class="cls-5" d="M558,219v-4.5c0-1.2.4-2.3,1.3-3.1.9-.9,1.9-1.3,3.2-1.3s2.3.4,3.2,1.3c.9.9,1.3,1.9,1.3,3.1v4.5h6.8c1.2,0,2.3.4,3.2,1.3.9.9,1.3,1.9,1.3,3.2s-.4,2.3-1.3,3.2c-.9.9-1.9,1.3-3.2,1.3h-6.8v13.5c0,1.2.4,2.3,1.3,3.2.9.9,1.9,1.3,3.2,1.3h2.3c1.2,0,2.3.4,3.2,1.3.9.9,1.3,1.9,1.3,3.2s-.4,2.3-1.3,3.2c-.9.9-1.9,1.3-3.2,1.3h-2.3c-1.9,0-3.6-.3-5.3-1-1.6-.7-3.1-1.7-4.3-2.9-1.2-1.2-2.2-2.7-2.9-4.3-.7-1.6-1-3.4-1-5.3v-13.5h-3.4c-1.2,0-2.3-.4-3.2-1.3-.9-.9-1.3-2-1.3-3.2s.4-2.3,1.3-3.2c.9-.9,1.9-1.3,3.2-1.3h3.4Z"/>
  </g>
  <g id="Canada">
    <path class="cls-3" d="M120,176.1c0-.9-.4-1.6-1.1-2.2-.7-.6-1.8-.9-3.3-.9h-1c-2.8,0-5.4,1.5-7.8,4.6-1.3,1.7-2.5,3.8-3.4,6.4-.9,2.6-1.4,4.7-1.4,6.3v.7c-.1,0-.1,2.3-.1,2.3,0,2.4.5,4.3,1.5,5.8,1,1.4,2.1,2.2,3.4,2.2s2.7-.5,4.4-1.6c3.5-2.3,5.9-6.2,7.1-11.7,1-4.6,1.5-7.7,1.5-9.3v-1.8c0,0,0-.6,0-.6ZM132.1,171.6c0,.5-.7,4.1-2,10.6-1.3,6.6-2,10.8-2,12.7s.2,3.1.5,3.5c.4.4,1.3.7,2.8.7s2.3.7,2.3,2.2-1,3.6-2.9,4.6c-2.5,1.3-5,2-7.4,2s-4.2-.6-5.3-1.8c-.3-.3-.7-1.2-1.2-2.6-.5-1.5-.8-2.2-1-2.2s-1.1.7-2.7,2.1c-3.7,3.2-7.2,4.7-10.7,4.7s-6.2-1.3-8.3-3.9c-2-2.6-3.1-5.8-3.1-9.6,0-7.5,2.4-13.9,7.1-19.3,2.4-2.6,5.2-4.7,8.4-6.2,3.3-1.5,6.3-2.3,9.2-2.3h1.7c1.1,0,2.5.2,4.2.6,1.7.4,3.1.6,4.3.6h1.4c0,0,1.2,0,1.2,0,2.1,0,3.2,1.2,3.2,3.5Z"/>
    <path class="cls-3" d="M175.2,204.8c-3.6,1.7-6.7,2.5-9.2,2.5s-3.8-1.4-3.8-4.2.6-3.9,1.7-10.3c1.2-6.4,1.7-10.5,1.7-12.5,0-3.6-1.5-5.4-4.5-5.4-1.5,0-3.2.8-5,2.4-1.8,1.6-3.2,3.3-4.2,5.1-.9,1.8-1.9,4.8-2.9,9-1,4.2-1.4,7.5-1.4,9.8s-.5,3.9-1.5,4.8c-1,.9-2.5,1.4-4.5,1.4s-3.5-.8-4.5-2.4c-1-1.6-1.5-3.5-1.5-5.8s.9-5.2,2.7-8.8c.9-1.9,1.4-4.2,1.4-7.1s-.2-4.6-.7-5.1c-.9-.9-1.4-2.2-1.4-3.8s.8-3.1,2.4-4.6c1.6-1.5,3.8-2.3,6.5-2.3s4.5,1.8,4.9,5.4c.1,1.3.4,2,.7,2,0,0,.8-.7,2.3-2.1,1.5-1.4,3.5-2.8,5.9-4,2.4-1.3,4.6-1.9,6.6-1.9h1.2c2.6,0,4.6.9,6,2.8,1.4,1.8,2.1,4,2.1,6.4s-.5,6.2-1.5,11.4c-1,5.2-1.5,8.3-1.5,9.4s.8,2.4,2.3,3.7c.4.3.9.6,1.5.8.6.1.9.3.9.5,0,1.1-1,2.1-2.9,2.9Z"/>
    <path class="cls-3" d="M206,176.1c0-.9-.4-1.6-1.1-2.2-.7-.6-1.8-.9-3.3-.9h-1c-2.8,0-5.4,1.5-7.8,4.6-1.3,1.7-2.5,3.8-3.4,6.4-.9,2.6-1.4,4.7-1.4,6.3v.7c-.1,0-.1,2.3-.1,2.3,0,2.4.5,4.3,1.5,5.8,1,1.4,2.1,2.2,3.4,2.2s2.7-.5,4.4-1.6c3.5-2.3,5.9-6.2,7.1-11.7,1-4.6,1.5-7.7,1.5-9.3v-1.8c0,0,0-.6,0-.6ZM218.5,171.6c0,.5-.7,4.1-2,10.6-1.3,6.6-2,10.8-2,12.7s.2,3.1.5,3.5c.4.4,1.3.7,2.8.7s2.3.7,2.3,2.2-1,3.6-2.9,4.6c-2.5,1.3-5,2-7.4,2s-4.2-.6-5.3-1.8c-.3-.3-.7-1.2-1.2-2.6-.5-1.5-.8-2.2-1-2.2s-1.1.7-2.7,2.1c-3.7,3.2-7.2,4.7-10.7,4.7s-6.2-1.3-8.3-3.9c-2-2.6-3.1-5.8-3.1-9.6,0-7.5,2.4-13.9,7.1-19.3,2.4-2.6,5.2-4.7,8.4-6.2,3.3-1.5,6.3-2.3,9.2-2.3h1.7c1.1,0,2.5.2,4.2.6,1.7.4,3.1.6,4.3.6h1.4c0,0,1.2,0,1.2,0,2.1,0,3.2,1.2,3.2,3.5Z"/>
    <path class="cls-3" d="M249,177.8c0-3.2-1.7-4.8-5-4.8h-1.1c-2.9,0-5.8,1.8-8.6,5.4-2.8,3.6-4.2,7.4-4.2,11.6v.8c0,0,0,1.9,0,1.9,0,.5,0,.9,0,1.2,0,1.9.5,3.5,1.7,5,1.1,1.5,2.4,2.2,3.9,2.2h.7c1,0,2.5-.6,4.3-1.7,1.8-1.2,3.3-2.7,4.5-4.7,2.6-4.2,3.8-8.6,3.8-13.2v-1.1c.1,0,.1-2.6.1-2.6ZM264,151.1c0,1.1-1.3,8.6-3.8,22.5-2.5,13.9-3.8,21.5-3.8,22.6s.2,2,.7,2.7c.5.6,1.4,1.1,2.8,1.5,1.4.4,2.1,1.1,2.1,1.9,0,1.4-1.1,2.7-3.3,3.8-2.2,1.1-4.3,1.6-6.5,1.6s-3.5-.2-4.1-.6c-.6-.4-1-1-1.4-1.6l-.8-1.5c-.7-.9-1.2-1.4-1.5-1.4s-2,.9-5,2.6c-3,1.7-5.6,2.5-7.8,2.5-3.5,0-6.3-1.2-8.5-3.7-2.2-2.5-3.3-5.6-3.3-9.3v-1.2c0-6.2,2.2-11.9,6.6-17,4.4-5.1,10-7.8,16.8-8.1,4-.2,6.3-.5,7-1.1s1.3-2,2-4.5c.7-2.4,1-5,1-7.8s-.8-2.1-2.3-3.5c-1.5-1.4-2.3-2.6-2.3-3.5s.6-.8,1.7-1.3c3.9-1.8,7.2-2.7,9.8-2.7s3.9,1.6,3.9,4.9v1s0,1,0,1Z"/>
    <path class="cls-3" d="M291,176.1c0-.9-.4-1.6-1.1-2.2-.7-.6-1.8-.9-3.3-.9h-1c-2.8,0-5.4,1.5-7.8,4.6-1.3,1.7-2.5,3.8-3.4,6.4-.9,2.6-1.4,4.7-1.4,6.3v.7c-.1,0-.1,2.3-.1,2.3,0,2.4.5,4.3,1.5,5.8,1,1.4,2.1,2.2,3.4,2.2s2.7-.5,4.4-1.6c3.5-2.3,5.9-6.2,7.1-11.7,1-4.6,1.5-7.7,1.5-9.3v-1.8c0,0,0-.6,0-.6ZM302.5,171.6c0,.5-.7,4.1-2,10.6-1.3,6.6-2,10.8-2,12.7s.2,3.1.5,3.5c.4.4,1.3.7,2.8.7s2.3.7,2.3,2.2-1,3.6-2.9,4.6c-2.5,1.3-5,2-7.4,2s-4.2-.6-5.3-1.8c-.3-.3-.7-1.2-1.2-2.6-.5-1.5-.8-2.2-1-2.2s-1.1.7-2.7,2.1c-3.7,3.2-7.2,4.7-10.7,4.7s-6.2-1.3-8.3-3.9c-2-2.6-3.1-5.8-3.1-9.6,0-7.5,2.4-13.9,7.1-19.3,2.4-2.6,5.2-4.7,8.4-6.2,3.3-1.5,6.3-2.3,9.2-2.3h1.7c1.1,0,2.5.2,4.2.6,1.7.4,3.1.6,4.3.6h1.4c0,0,1.2,0,1.2,0,2.1,0,3.2,1.2,3.2,3.5Z"/>
    <g class="cls-9">
      <path class="cls-3" d="M96.4,90.1c-4.1-2.1-9.9-3.2-17.6-3.4-12.5-.5-22.1,5.2-28.9,16.9-6.5,11.3-9,25.2-7.5,41.6,1.7,16.6,7,29.6,16,39.1,9.3,10.2,21.2,14,35.5,11.3.2,0,.4,0,.8-.1.4,0,.6-.1.8-.1,1.5-.5,2.9-.3,4.3.5,1.4.8,2.3,1.9,2.7,3.4.8,3-.3,5.2-3.2,6.6-.5.5-1,.7-1.6.7s-.4,0-.7.1c-.3,0-.5.1-.7.1-19.7,5.3-36.5,1.9-50.4-10.2-12.5-10.8-20.3-26-23.3-45.4-2.9-19-.7-35.9,6.6-50.8,8.1-17.2,20.9-26.6,38.4-28.2,2.4-.1,5.7-.2,9.9-.2,4.2.2,8.6,1,13.1,2.5,11.4,3.8,20.8,11.5,28,23.1,1.8,3.2,1.2,5.8-1.8,7.9-2,1.2-3.8,1.2-5.7,0-1.4-.2-2.6-1.1-3.6-2.7-3-6-6.8-10.2-11.3-12.4Z"/>
    </g>
  </g>
  <g id="got">
    <path class="cls-4" d="M232,259.1c2.1,0,4-.6,5.5-1.9,1.6-1.3,2.7-2.9,3.2-4.9-1.3.7-2.7,1.3-4.1,1.7-1.4.4-3,.6-4.6.6-2.5,0-4.8-.5-7-1.4-2.2-.9-4.1-2.2-5.7-3.9-1.6-1.6-2.9-3.5-3.9-5.7-.9-2.2-1.4-4.5-1.4-7s.5-4.8,1.4-7c.9-2.2,2.2-4.1,3.9-5.7,1.6-1.6,3.5-2.9,5.7-3.9,2.2-.9,4.5-1.4,7-1.4s3.2.2,4.7.6c1.5.4,2.9,1,4.2,1.8.4-.9,1-1.6,1.9-2.1.8-.5,1.7-.8,2.8-.8s2.6.5,3.6,1.5c1,1,1.5,2.2,1.5,3.6s-.3,2-.8,2.8c-.5.8-1.3,1.4-2.1,1.9.8,1.3,1.3,2.7,1.8,4.2.4,1.5.6,3,.6,4.7v13.5c0,2.5-.5,4.8-1.4,7-.9,2.2-2.2,4.1-3.9,5.7-1.6,1.6-3.6,2.9-5.7,3.9-2.2.9-4.5,1.4-7,1.4s-4.5-.4-6.8-1.3c-2.2-.9-4.2-2.2-6-4-.9-.9-1.3-1.9-1.3-3.1s.4-2.3,1.3-3.2c.9-.9,1.9-1.3,3.1-1.3s2.3.4,3.2,1.3c.9.9,1.9,1.5,3,2,1.1.4,2.2.6,3.4.6ZM223,236.6c0,1.3.2,2.4.7,3.5.5,1.1,1.1,2,1.9,2.8.8.8,1.8,1.5,2.8,1.9,1.1.5,2.3.7,3.5.7s2.4-.2,3.5-.7c1.1-.5,2-1.1,2.9-1.9.8-.8,1.5-1.8,1.9-2.8.5-1.1.7-2.3.7-3.5s-.2-2.4-.7-3.5c-.5-1.1-1.1-2-1.9-2.9-.8-.8-1.8-1.5-2.9-1.9-1.1-.5-2.2-.7-3.5-.7s-2.4.2-3.5.7c-1.1.5-2,1.1-2.8,1.9-.8.8-1.5,1.8-1.9,2.9-.5,1.1-.7,2.2-.7,3.5Z"/>
    <path class="cls-4" d="M253.9,236.6c0-2.5.5-4.8,1.4-7,.9-2.2,2.2-4.1,3.9-5.7,1.6-1.6,3.5-2.9,5.7-3.9,2.2-.9,4.5-1.4,7-1.4s4.8.5,7,1.4c2.2.9,4.1,2.2,5.7,3.9,1.6,1.6,2.9,3.6,3.9,5.7.9,2.2,1.4,4.5,1.4,7s-.5,4.8-1.4,7c-.9,2.2-2.2,4.1-3.9,5.7-1.6,1.6-3.6,2.9-5.7,3.9-2.2.9-4.5,1.4-7,1.4s-4.8-.5-7-1.4c-2.2-.9-4.1-2.2-5.7-3.9-1.6-1.6-2.9-3.5-3.9-5.7-.9-2.2-1.4-4.5-1.4-7ZM262.9,236.6c0,1.3.2,2.4.7,3.5.5,1.1,1.1,2,1.9,2.8.8.8,1.8,1.5,2.8,1.9,1.1.5,2.3.7,3.5.7s2.4-.2,3.5-.7c1.1-.5,2-1.1,2.9-1.9.8-.8,1.5-1.8,1.9-2.8.5-1.1.7-2.3.7-3.5s-.2-2.4-.7-3.5c-.5-1.1-1.1-2-1.9-2.9-.8-.8-1.8-1.5-2.9-1.9-1.1-.5-2.2-.7-3.5-.7s-2.4.2-3.5.7c-1.1.5-2,1.1-2.8,1.9-.8.8-1.5,1.8-1.9,2.9-.5,1.1-.7,2.2-.7,3.5Z"/>
    <path class="cls-4" d="M299,219v-4.5c0-1.2.4-2.3,1.3-3.1.9-.9,1.9-1.3,3.2-1.3s2.3.4,3.2,1.3c.9.9,1.3,1.9,1.3,3.1v4.5h6.8c1.2,0,2.3.4,3.2,1.3.9.9,1.3,1.9,1.3,3.2s-.4,2.3-1.3,3.2c-.9.9-1.9,1.3-3.2,1.3h-6.8v13.5c0,1.2.4,2.3,1.3,3.2.9.9,1.9,1.3,3.2,1.3h2.3c1.2,0,2.3.4,3.2,1.3.9.9,1.3,1.9,1.3,3.2s-.4,2.3-1.3,3.2c-.9.9-1.9,1.3-3.2,1.3h-2.3c-1.9,0-3.6-.3-5.3-1-1.6-.7-3.1-1.7-4.3-2.9-1.2-1.2-2.2-2.7-2.9-4.3-.7-1.6-1-3.4-1-5.3v-13.5h-3.4c-1.2,0-2.3-.4-3.2-1.3-.9-.9-1.3-2-1.3-3.2s.4-2.3,1.3-3.2c.9-.9,1.9-1.3,3.2-1.3h3.4Z"/>
  </g>
</svg>